<?xml version="1.0" encoding="UTF-8"?>
<!-- Created with Inkscape (http://www.inkscape.org/) -->
<svg width="52.404mm" height="108.62mm" version="1.1" viewBox="0 0 52.404278 108.6192" xmlns="http://www.w3.org/2000/svg" xmlns:cc="http://creativecommons.org/ns#" xmlns:dc="http://purl.org/dc/elements/1.1/" xmlns:rdf="http://www.w3.org/1999/02/22-rdf-syntax-ns#">
 <metadata>
  <rdf:RDF>
   <cc:Work rdf:about="">
    <dc:format>image/svg+xml</dc:format>
    <dc:type rdf:resource="http://purl.org/dc/dcmitype/StillImage"/>
    <dc:title/>
   </cc:Work>
  </rdf:RDF>
 </metadata>
 <g transform="translate(-84.826 -113.4)">
  <path d="m131.7 221.92c-0.94837-0.13301-2.1551-0.62941-2.8869-1.1876-1.3082-0.99781-2.01-1.2095-2.01-0.60627 0 0.64526-0.9647 0.36419-1.4959-0.43583l-0.52362-0.78861-1.7426 0.81617c-2.2535 1.0555-3.9194 0.92933-4.6785-0.35431-0.30539-0.51643-1.2915-2.1833-2.1913-3.7042-3.4445-5.8218-5.17-9.6111-8.2575-18.135-1.9042-5.2569-3.8433-9.3109-4.8552-10.151-0.39289-0.32608-0.56002-0.1491-0.86531 0.91627-0.2081 0.72622-1.4363 5.1304-2.7294 9.7871-1.2931 4.6567-2.9732 10.418-3.7337 12.804-1.4426 4.5252-1.6181 5.5298-1.0299 5.8934 0.62743 0.38778 0.3786 1.0523-0.87872 2.3468-1.3672 1.4076-2.8728 1.8759-4.2942 1.3355-0.64041-0.24348-1.0556-0.24068-1.3051 9e-3 -0.50985 0.50985-1.6354 0.45825-1.6381-0.0751-1e-3 -0.24253-0.21988-0.85819-0.48595-1.3681-0.43675-0.83703-0.38529-1.1507 0.5294-3.2269 0.8715-1.9781 1.0647-3.0249 1.3815-7.4858 0.20258-2.8523 0.58419-5.7659 0.84803-6.4745 0.26383-0.70865 1.0592-2.876 1.7674-4.8162 0.70823-1.9403 1.491-3.6865 1.7394-3.8806 0.51405-0.40148 1.4692-3.9576 2.6531-9.8778 0.19401-0.97014 0.32511-2.5576 0.29133-3.5278-0.0338-0.97014 0.0742-2.7561 0.23997-3.9688l0.30138-2.2049h-1.9408c-1.7652 0-6.3381-1.2122-8.0705-2.1394-0.97979-0.52437-0.81287-1.764 0.57481-4.269 2.7705-5.0011 4.4065-8.5885 4.4065-9.6624 0-0.62091 0.23813-1.3266 0.52917-1.5681 0.29104-0.24155 0.52917-0.88283 0.52917-1.4251 0-0.89945-0.15706-1.0196-1.791-1.37-0.98504-0.21125-2.1048-0.55204-2.4883-0.7573-1.0507-0.5623-2.0689-2.4667-2.0616-3.856 8e-3 -1.6108 1.1249-4.0378 2.1662-4.7089 1.1272-0.72639 3.3264-1.0991 3.626-0.61445 0.13068 0.21146 0.77449 0.38446 1.4307 0.38446s1.2912 0.15875 1.4111 0.35278c0.35424 0.57316 0.73229 0.40965 1.2381-0.53552 0.31491-0.5884 0.46197-2.0474 0.4356-4.3215-0.0219-1.8883 0.11164-3.9888 0.29676-4.668 0.18511-0.6791 0.72148-2.981 1.1919-5.1153 1.3267-6.019 2.29-8.5524 4.2496-11.176 1.5925-2.1324 2.362-2.8653 2.2476-2.141-0.14474 0.91674 0.17841 0.74695 1.186-0.62311 0.86492-1.1761 1.1734-1.4044 1.2637-0.93547 0.0657 0.34121-0.0502 1.1072-0.25762 1.7021-0.37128 1.065-0.36085 1.0793 0.67661 0.92707 1.427-0.20944 1.3353 0.28105-0.14381 0.76921-1.5509 0.51184-2.1674 2.4817-0.77662 2.4817 0.24952 0 0.75609 0.34442 1.1257 0.76537 0.66288 0.75495 0.66243 0.76182-0.0335 0.50446-1.572-0.58132-2.5829-0.60002-3.8486-0.0712-1.2908 0.53932-1.3233 0.59675-1.0972 1.9354 0.14335 0.84846 0.0877 1.4695-0.14458 1.613-0.2289 0.14147-0.38273 1.7192-0.3905 4.005-7e-3 2.0744-0.15574 6.3297-0.33042 9.4564-0.29866 5.3459-0.26811 5.899 0.51236 9.2768 0.86666 3.7508 0.9249 3.8695 3.0859 6.2874 1.7378 1.9443 3.1088 5.0493 3.3518 7.5906 0.10667 1.1157 0.34582 2.0285 0.53146 2.0285 0.18563 0 0.77418-0.31094 1.3079-0.69098 0.53371-0.38003 1.5107-0.78193 2.1711-0.89311 1.3597-0.2289 2.6481-1.0675 3.4152-2.2228 0.49342-0.74312 0.46247-0.80508-0.58429-1.17-1.7508-0.61033-1.853-1.8842-0.26765-3.3365 0.77184-0.7071 1.2833-1.503 1.2833-1.9971 0-1.6744 2.0867-3.4479 4.0569-3.4479 2.9022 0 5.0898 3.3683 3.5279 5.4318-0.27866 0.36813-0.40866 0.82788-0.28889 1.0217s-0.15631 1.0371-0.61351 1.8741-0.73498 1.618-0.6173 1.7357c0.20537 0.20537 6.9963-0.42933 7.2441-0.67704 0.0663-0.0663 0.28097-1.1338 0.47704-2.3721s0.50422-2.7278 0.68477-3.3099c0.81926-2.6412 2.1141-10.481 2.1266-12.876 0.0159-3.0605 0.83787-10.85 1.181-11.193 0.12796-0.12796 0.57769 0.11239 0.99941 0.53411 0.58928 0.58928 0.80098 1.3042 0.91461 3.0887 0.11095 1.7424 0.2646 2.2771 0.61568 2.1424 0.32709-0.12552 0.53847 0.29151 0.70264 1.3862 0.21211 1.4145 0.12874 1.6866-0.86308 2.8162l-1.0979 1.2504v5.8139c0 5.6217-0.0638 6.1377-1.4037 11.359-0.27698 1.0794-0.23936 1.1466 0.64293 1.1478 1.1272 1e-3 3.2302 1.2146 3.2302 1.8632 0 0.82405-0.81491 1.3105-2.1955 1.3105h-1.3488l0.27284 2.9104c0.15006 1.6007 0.26121 4.736 0.24701 6.9674-0.0227 3.5624-0.14458 4.358-0.99998 6.5264-0.53579 1.3582-1.1131 3.0251-1.2829 3.7042-0.4626 1.8501-0.48464 6.1208-0.0359 6.9592 0.21685 0.40519 0.4904 1.5054 0.60789 2.445 0.1175 0.93955 0.27594 2.0258 0.35209 2.4138 0.0762 0.38805 0.28386 1.6019 0.46156 2.6974 0.17771 1.0955 0.42926 2.3263 0.55901 2.7351 0.15083 0.47524 0.0302 0.94903-0.33471 1.3139-0.31383 0.31383-0.66203 1.0277-0.77376 1.5864-0.25003 1.2501-0.67059 1.3084-0.96539 0.13386-0.27525-1.0967-1.0339-1.1401-1.5412-0.0882-0.37593 0.77947-0.38324 0.7763-0.40669-0.17639-0.0131-0.53358-0.18262-0.97014-0.37665-0.97014s-0.35278-0.76729-0.35278-1.7051c0-1.2115-0.1404-1.7051-0.48505-1.7051-0.3276 0-0.55588 0.63943-0.70322 1.9697-0.11999 1.0833-0.45037 2.6047-0.73418 3.3808-0.3066 0.83842-0.52231 2.7238-0.53151 4.6456l-0.0155 3.2345 3.0231 3.8889c1.6627 2.1389 3.5677 4.2102 4.2333 4.603 1.2654 0.74659 1.4997 1.3655 0.78688 2.0784-0.45069 0.45069-0.6128 0.45587-3.1464 0.10052zm-7.0649-18.639c-0.0536-3.0186 0.0621-4.7595 0.35169-5.2931 0.32479-0.59846 0.33695-1.1466 0.0491-2.2155-0.42671-1.5847-1.0551-1.5651-1.0551 0.0329 0 0.66125-0.18173 1.0375-0.50113 1.0375-0.27563 0-0.60789 0.48604-0.73837 1.0801l-0.23722 1.0801-0.67538-1.2601c-1.0327-1.9269-1.5271-6.3238-0.77164-6.8628 0.16265-0.11602 0.34636-2.7109 0.40826-5.7664l0.11254-5.5555-1.9597-2.915c-1.0778-1.6032-2.9581-3.9452-4.1784-5.2043s-2.7056-2.9158-3.3008-3.6817c-1.05-1.3512-1.1146-1.379-2.1795-0.93784-1.7622 0.72994-1.7798 1.1131-0.26811 5.858 0.99471 3.1223 1.4145 5.8208 0.90549 5.8208-0.74092 0-0.35063 1.0333 0.88524 2.3437 0.90588 0.96051 1.7055 2.528 2.8473 5.5814 0.87323 2.3352 1.8268 4.8808 2.1191 5.6569 0.29225 0.77611 0.73589 1.6492 0.98585 1.9403 0.24996 0.29104 0.56432 1.0054 0.69859 1.5875 0.51859 2.2482 2.0994 5.7221 3.388 7.445 0.74064 0.9903 1.5238 2.4587 1.7405 3.2632 0.23992 0.89096 0.60095 1.4626 0.92371 1.4626 0.44776 0 0.51748-0.69689 0.44997-4.4979zm3.9319-34.431c0-0.64982 0.10228-2.3916 0.2273-3.8705l0.22731-2.689-1.0601 0.30403c-2.0454 0.5866-2.5695 1.0452-2.5695 2.2483 0 1.8783 0.6373 3.5544 1.6704 4.3932 1.3027 1.0577 1.5046 1.006 1.5046-0.38599zm-34.749-0.22961c0.11992-0.19403 0.48741-0.35278 0.81665-0.35278 0.63871 0 1.6647-1.8794 1.3256-2.4281-0.36348-0.58812-1.6121 0.0198-2.6654 1.2976-0.56724 0.68816-0.95002 1.3828-0.85063 1.5436 0.25009 0.40465 1.1098 0.36687 1.3738-0.0604z" fill="#fff" stroke-width=".35278"/>
 </g>
</svg>
